<?xml version="1.0" standalone="no"?>
<!DOCTYPE svg PUBLIC "-//W3C//DTD SVG 20010904//EN"
 "http://www.w3.org/TR/2001/REC-SVG-20010904/DTD/svg10.dtd">
<svg version="1.0" xmlns="http://www.w3.org/2000/svg"
 width="960.000000pt" height="960.000000pt" viewBox="0 0 960.000000 960.000000"
 preserveAspectRatio="xMidYMid meet">

<g transform="translate(0.000000,960.000000) scale(0.100000,-0.100000)"
fill="#000000" stroke="none">
<path d="M4639 8631 c-64 -16 -153 -65 -195 -106 -39 -38 -82 -111 -98 -165
-31 -105 -11 -290 40 -369 30 -45 132 -140 176 -162 22 -11 68 -25 102 -30 70
-10 200 5 233 27 12 8 27 14 34 14 22 0 101 65 140 117 52 69 79 154 79 250 0
213 -115 383 -289 428 -74 19 -138 18 -222 -4z"/>
<path d="M4135 8311 c-16 -5 -66 -16 -110 -26 -119 -26 -352 -92 -370 -106 -5
-4 -30 -12 -55 -19 -25 -7 -70 -23 -100 -37 -30 -14 -68 -31 -85 -38 -183 -82
-284 -144 -364 -226 -65 -67 -78 -95 -83 -173 -3 -49 -2 -50 30 -60 27 -7 42
-5 78 12 24 12 53 22 64 22 10 0 22 5 26 11 3 6 25 19 48 30 22 10 68 33 101
52 178 98 228 120 380 167 96 29 140 35 425 61 69 6 129 15 135 20 6 6 4 27
-4 57 -8 26 -17 94 -20 152 l-6 105 -30 2 c-16 1 -43 -2 -60 -6z"/>
<path d="M5256 8069 c-14 -30 -46 -90 -70 -134 -25 -44 -45 -87 -45 -96 -1
-13 13 -18 62 -23 68 -7 135 -28 207 -65 141 -74 228 -178 337 -401 185 -380
211 -425 279 -497 55 -58 63 -64 90 -58 16 4 40 19 53 33 20 23 23 33 19 91
-4 65 -27 130 -163 466 -18 44 -40 105 -49 135 -10 30 -23 64 -30 75 -7 11
-28 47 -46 80 -18 33 -45 76 -59 95 -15 19 -35 47 -44 62 -9 15 -50 59 -90 98
-93 91 -253 174 -358 185 l-67 7 -26 -53z"/>
<path d="M5978 8014 c-31 -6 -88 -66 -88 -94 0 -25 51 -62 130 -94 36 -15 81
-36 101 -46 20 -11 43 -20 51 -20 21 0 227 -105 252 -129 12 -10 32 -22 46
-26 14 -4 34 -15 45 -25 11 -9 49 -37 85 -60 36 -24 83 -60 105 -81 22 -21 56
-53 76 -71 20 -18 38 -38 40 -45 4 -11 84 -97 132 -141 l25 -23 41 59 c23 32
60 72 82 88 56 40 79 65 79 84 0 10 -23 37 -51 61 -29 24 -74 64 -101 89 -27
25 -62 52 -78 60 -15 8 -88 56 -161 105 -136 92 -170 112 -320 189 -168 86
-255 114 -365 120 -54 2 -111 2 -126 0z"/>
<path d="M2918 7353 c7 -3 16 -2 19 1 4 3 -2 6 -13 5 -11 0 -14 -3 -6 -6z"/>
<path d="M2552 7338 c-18 -18 -15 -28 7 -28 26 0 34 15 18 29 -10 8 -17 7 -25
-1z"/>
<path d="M7365 7331 c-103 -29 -242 -127 -277 -194 -71 -140 -76 -266 -15
-394 35 -75 65 -114 128 -166 129 -106 337 -112 483 -12 70 48 77 54 109 102
78 114 88 297 24 448 -25 59 -95 146 -134 165 -15 8 -38 23 -50 33 -18 16 -41
20 -130 23 -59 2 -121 -1 -138 -5z"/>
<path d="M2043 7303 c9 -2 23 -2 30 0 6 3 -1 5 -18 5 -16 0 -22 -2 -12 -5z"/>
<path d="M2617 7279 c-17 -10 -23 -29 -9 -29 5 0 16 6 27 13 22 17 7 29 -18
16z"/>
<path d="M1991 7230 c-10 -5 -9 -8 2 -13 7 -3 19 -2 26 3 10 5 9 8 -2 13 -7 3
-19 2 -26 -3z"/>
<path d="M3883 7223 c9 -2 23 -2 30 0 6 3 -1 5 -18 5 -16 0 -22 -2 -12 -5z"/>
<path d="M3925 7184 c-5 -1 -27 -5 -47 -9 -21 -3 -38 -10 -38 -15 0 -12 70
-13 89 -1 15 10 12 30 -4 25z"/>
<path d="M2270 7159 c0 -5 5 -7 10 -4 6 3 10 8 10 11 0 2 -4 4 -10 4 -5 0 -10
-5 -10 -11z"/>
<path d="M2341 7154 c0 -11 3 -14 6 -6 3 7 2 16 -1 19 -3 4 -6 -2 -5 -13z"/>
<path d="M3585 7150 c3 -5 14 -10 23 -10 15 0 15 2 2 10 -20 13 -33 13 -25 0z"/>
<path d="M3925 7090 c-3 -5 -2 -10 4 -10 5 0 13 5 16 10 3 6 2 10 -4 10 -5 0
-13 -4 -16 -10z"/>
<path d="M2370 7081 c0 -6 5 -13 10 -16 6 -3 10 1 10 9 0 9 -4 16 -10 16 -5 0
-10 -4 -10 -9z"/>
<path d="M2600 7045 c0 -8 5 -15 10 -15 6 0 10 7 10 15 0 8 -4 15 -10 15 -5 0
-10 -7 -10 -15z"/>
<path d="M2401 6994 c0 -11 3 -14 6 -6 3 7 2 16 -1 19 -3 4 -6 -2 -5 -13z"/>
<path d="M2340 6906 c0 -47 4 -86 9 -86 12 0 13 157 1 165 -6 4 -10 -25 -10
-79z"/>
<path d="M2390 6940 c0 -11 5 -20 11 -20 5 0 7 -5 3 -12 -4 -7 -3 -8 4 -4 18
11 15 56 -3 56 -8 0 -15 -9 -15 -20z"/>
<path d="M4626 6929 c-10 -7 -55 -17 -100 -24 -108 -16 -301 -68 -368 -99 -29
-14 -89 -39 -133 -57 -44 -18 -109 -51 -145 -74 -36 -23 -75 -47 -87 -54 -31
-16 -29 -31 5 -31 30 0 127 42 154 67 9 8 46 23 82 32 36 9 69 20 72 24 4 4
17 7 28 7 12 0 30 7 40 15 23 17 46 20 46 5 0 -16 -42 -70 -54 -70 -20 0 -34
-15 -41 -43 -7 -28 -7 -28 29 -22 37 7 43 1 27 -24 -7 -11 -40 -17 -118 -22
-208 -14 -342 -42 -392 -85 -16 -13 -34 -24 -40 -24 -6 0 -11 -11 -11 -23 0
-26 -78 -112 -110 -122 -23 -7 -26 -25 -8 -43 9 -9 3 -21 -29 -55 -22 -23 -53
-61 -67 -84 -14 -24 -35 -49 -46 -55 -11 -7 -20 -18 -20 -25 0 -26 37 -12 115
42 44 31 103 71 131 91 94 64 149 54 156 -31 3 -35 6 -40 25 -38 18 2 24 -4
28 -25 3 -15 10 -41 15 -58 14 -42 12 -78 -4 -116 -56 -134 -50 -190 38 -343
26 -44 46 -92 46 -108 0 -18 16 -54 40 -89 22 -33 40 -64 40 -69 0 -5 9 -9 20
-9 28 0 25 20 -15 94 -19 36 -31 67 -26 70 5 4 26 -18 47 -46 21 -29 68 -84
103 -121 58 -60 64 -70 53 -87 -24 -39 -10 -60 42 -60 13 0 36 -15 54 -34 33
-36 73 -52 157 -63 52 -7 148 -44 160 -62 3 -6 14 -11 23 -11 9 0 30 -7 46
-15 15 -8 36 -15 45 -15 19 0 81 -57 120 -110 40 -53 139 -88 168 -59 6 6 21
9 34 7 27 -4 47 -52 48 -116 1 -38 -6 -53 -58 -120 -93 -122 -99 -203 -21
-325 16 -26 30 -52 30 -57 0 -10 32 -72 41 -80 3 -3 9 -17 12 -31 11 -43 50
-92 92 -114 111 -58 122 -100 90 -340 -16 -120 -25 -167 -70 -365 -13 -58 -27
-129 -31 -157 -6 -50 -5 -54 26 -83 46 -43 86 -62 123 -58 24 2 33 8 35 26 2
13 -3 25 -12 28 -24 9 -19 40 9 58 17 11 25 26 25 45 0 33 79 114 172 176 32
20 60 47 63 59 12 43 29 66 47 66 46 0 132 65 200 152 21 26 58 59 83 73 25
15 45 31 45 36 0 17 60 76 97 95 21 10 42 24 48 29 29 27 66 86 85 134 21 54
70 136 122 201 25 33 47 76 62 126 6 18 -3 27 -61 61 -38 22 -90 48 -118 58
-27 10 -72 30 -100 45 -27 15 -69 34 -93 41 -39 11 -42 15 -37 39 11 49 -75
170 -120 170 -28 0 -120 47 -158 81 -21 19 -45 48 -52 66 -16 38 -45 48 -118
40 -36 -5 -60 -2 -77 8 -49 28 -76 37 -132 45 -47 7 -67 5 -110 -12 -28 -10
-63 -31 -76 -45 -19 -21 -29 -24 -55 -18 -46 9 -77 10 -118 1 -33 -7 -38 -5
-58 23 -16 21 -24 52 -28 101 -8 89 -19 100 -107 102 -37 0 -69 4 -71 9 -3 4
6 42 19 83 14 42 23 83 20 91 -4 9 -19 15 -36 15 -23 0 -42 -12 -83 -55 -58
-61 -89 -69 -142 -38 -74 42 -99 161 -49 234 32 46 109 96 163 105 23 3 50 15
59 25 22 25 83 25 132 0 43 -22 60 -40 92 -98 24 -44 53 -56 64 -28 7 20 -2
41 -36 89 -15 21 -28 49 -28 61 0 12 24 48 56 84 55 60 56 63 50 107 -4 33 -2
46 8 50 8 3 29 35 47 72 43 88 53 97 108 97 55 0 115 27 138 61 20 31 62 49
77 34 5 -5 23 -10 38 -10 32 0 39 28 13 50 -8 7 -15 19 -15 27 0 11 -7 13 -24
9 -21 -5 -32 3 -73 50 -26 30 -68 68 -93 83 -25 15 -71 51 -102 80 -56 51 -57
52 -82 36 -23 -15 -27 -15 -61 1 -20 9 -40 25 -46 35 -12 23 -1 24 46 4 33
-13 36 -13 55 7 24 26 24 34 5 72 -8 15 -15 33 -15 40 -1 6 -21 31 -45 56 -25
25 -45 48 -45 53 0 4 -7 7 -15 7 -16 0 -38 34 -28 44 3 3 22 6 40 6 52 0 193
-100 193 -136 0 -25 43 -74 95 -110 28 -18 66 -49 85 -67 43 -41 97 -70 116
-63 18 7 18 40 -2 96 -20 56 -11 103 23 128 20 15 25 24 20 43 -15 58 -296
241 -387 251 -17 2 -25 9 -25 23 0 19 6 20 95 18 52 -1 133 -7 179 -13 59 -8
87 -8 95 0 20 20 -19 38 -124 56 -128 22 -593 31 -624 13z m152 -371 c27 -14
28 -34 2 -48 -29 -16 -25 -27 21 -56 22 -14 39 -27 36 -30 -2 -2 -26 1 -54 7
-38 9 -55 19 -73 45 -45 67 -27 146 25 108 11 -8 30 -19 43 -26z"/>
<path d="M2400 6799 c0 -11 4 -18 10 -14 5 3 7 12 3 20 -7 21 -13 19 -13 -6z"/>
<path d="M2208 6773 c-41 -5 -53 -23 -14 -23 53 0 85 -12 83 -31 -1 -10 2 -17
8 -16 5 1 9 7 7 14 -1 7 7 17 18 23 26 14 18 29 -14 23 -13 -3 -27 0 -30 6 -4
6 -10 10 -14 9 -4 -1 -24 -3 -44 -5z"/>
<path d="M1960 6600 c0 -14 65 -23 115 -16 70 11 53 23 -35 24 -45 1 -80 -2
-80 -8z"/>
<path d="M1645 6529 c-10 -15 3 -25 16 -12 7 7 7 13 1 17 -6 3 -14 1 -17 -5z"/>
<path d="M1960 6530 c20 -13 40 -13 40 0 0 6 -12 10 -27 10 -22 0 -25 -2 -13
-10z"/>
<path d="M7655 6450 c-3 -5 -15 -10 -25 -10 -10 0 -54 -13 -97 -29 -43 -16
-90 -32 -105 -35 -37 -8 -35 -29 6 -79 76 -92 126 -235 126 -356 0 -70 -22
-211 -39 -256 -4 -11 -21 -60 -36 -110 -16 -49 -33 -97 -37 -105 -14 -26 -79
-232 -95 -300 -24 -106 -27 -167 -9 -195 9 -13 16 -31 16 -40 0 -11 11 -15 40
-15 32 0 46 7 78 39 35 36 84 122 125 221 8 19 29 69 47 110 38 86 67 154 82
190 6 14 17 39 23 55 53 125 71 184 90 305 8 47 14 119 15 162 0 134 -45 309
-96 371 -13 16 -24 32 -24 36 0 4 -9 17 -20 29 -22 23 -54 29 -65 12z"/>
<path d="M1590 6430 c0 -11 5 -20 10 -20 6 0 10 9 10 20 0 11 -4 20 -10 20 -5
0 -10 -9 -10 -20z"/>
<path d="M5554 6435 c-11 -27 4 -42 48 -48 23 -3 60 -9 81 -13 35 -6 37 -5 37
19 0 23 -7 28 -52 42 -66 19 -107 19 -114 0z"/>
<path d="M1670 6412 c-14 -5 -30 -21 -30 -32 0 -3 29 -6 65 -6 36 -1 65 3 65
8 0 5 -6 10 -12 12 -7 2 -27 7 -43 13 -17 5 -37 7 -45 5z"/>
<path d="M1860 6389 c0 -5 5 -7 10 -4 6 3 10 8 10 11 0 2 -4 4 -10 4 -5 0 -10
-5 -10 -11z"/>
<path d="M1560 6171 c-16 -31 -12 -51 10 -51 15 0 20 -7 20 -25 0 -15 6 -25
14 -25 15 0 11 36 -5 46 -5 3 -9 21 -9 40 0 38 -14 45 -30 15z"/>
<path d="M3275 6174 c-20 -20 -2 -47 28 -42 29 4 46 36 27 48 -22 14 -36 12
-55 -6z"/>
<path d="M1470 6161 c0 -5 -3 -18 -7 -28 -6 -16 -5 -16 10 -4 19 15 23 41 7
41 -5 0 -10 -4 -10 -9z"/>
<path d="M6518 6133 c-9 -10 -22 -35 -29 -56 -15 -43 -6 -57 42 -57 22 0 29
-8 43 -44 9 -23 14 -50 11 -59 -4 -8 5 -33 19 -54 15 -22 31 -54 36 -72 8 -30
8 -32 -13 -24 -12 4 -38 7 -57 8 l-34 0 -13 -95 c-14 -97 -8 -140 19 -140 7 0
26 -11 43 -24 29 -23 29 -25 12 -43 -9 -11 -17 -28 -17 -39 0 -24 -60 -87 -98
-103 -16 -7 -33 -25 -40 -44 -7 -17 -20 -45 -28 -62 -14 -30 -32 -115 -54
-256 -14 -88 -5 -131 35 -169 14 -13 25 -27 25 -32 0 -21 74 -103 103 -116 26
-11 46 -11 107 -2 41 7 84 18 95 26 25 18 54 18 61 0 3 -8 18 -20 34 -26 16
-7 32 -20 34 -29 3 -9 6 -88 8 -176 2 -126 -1 -170 -13 -205 -9 -25 -22 -90
-28 -145 -7 -55 -19 -139 -27 -186 -8 -48 -14 -96 -14 -108 0 -32 25 -16 45
30 10 22 37 56 59 77 23 21 49 49 58 64 23 35 45 127 52 223 4 44 18 136 32
205 30 153 41 393 25 530 -19 166 -53 363 -72 427 -11 34 -19 70 -19 80 -1 51
-127 324 -200 433 -20 30 -47 75 -59 100 -27 54 -59 95 -68 86 -3 -3 -1 -16 5
-29 16 -33 23 -75 14 -81 -11 -7 -36 45 -63 132 -24 76 -41 89 -71 55z m392
-648 c0 -8 -4 -15 -10 -15 -5 0 -10 7 -10 15 0 8 5 15 10 15 6 0 10 -7 10 -15z"/>
<path d="M1520 6074 c0 -14 4 -23 10 -19 6 3 10 15 10 26 0 10 -4 19 -10 19
-5 0 -10 -12 -10 -26z"/>
<path d="M1630 6018 c0 -19 2 -20 10 -8 13 19 13 30 0 30 -5 0 -10 -10 -10
-22z"/>
<path d="M1550 6016 c0 -9 5 -16 10 -16 6 0 10 4 10 9 0 6 -4 13 -10 16 -5 3
-10 -1 -10 -9z"/>
<path d="M1481 5994 c0 -11 3 -14 6 -6 3 7 2 16 -1 19 -3 4 -6 -2 -5 -13z"/>
<path d="M1400 5975 c0 -8 5 -15 10 -15 6 0 10 7 10 15 0 8 -4 15 -10 15 -5 0
-10 -7 -10 -15z"/>
<path d="M1590 5955 c0 -8 5 -15 10 -15 6 0 10 7 10 15 0 8 -4 15 -10 15 -5 0
-10 -7 -10 -15z"/>
<path d="M1500 5936 c0 -8 7 -16 15 -20 13 -4 14 -2 5 14 -13 23 -20 26 -20 6z"/>
<path d="M1440 5921 c0 -11 5 -23 10 -26 6 -3 10 -17 10 -31 0 -13 5 -24 10
-24 14 0 12 16 -5 50 -10 19 -11 30 -5 30 6 0 8 5 5 10 -10 17 -25 11 -25 -9z"/>
<path d="M7939 5831 c-21 -17 -24 -27 -23 -83 1 -67 35 -215 84 -369 44 -137
53 -226 47 -423 -5 -144 -32 -370 -52 -423 -2 -6 2 -16 8 -21 16 -13 308 -25
326 -13 11 7 12 48 7 227 -19 643 -126 1037 -302 1110 -45 19 -67 18 -95 -5z"/>
<path d="M1381 5784 c0 -11 3 -14 6 -6 3 7 2 16 -1 19 -3 4 -6 -2 -5 -13z"/>
<path d="M2974 5719 c-29 -47 -54 -112 -54 -142 0 -19 1 -19 19 -3 24 22 34 7
26 -38 -10 -50 -55 -62 -55 -15 0 34 -17 12 -22 -29 -3 -21 -17 -63 -31 -93
-14 -30 -31 -88 -37 -129 -7 -41 -18 -100 -26 -130 -7 -30 -16 -116 -19 -190
-6 -112 -4 -138 8 -155 9 -11 18 -17 22 -14 3 4 9 69 11 145 6 140 17 184 48
184 32 0 37 26 16 83 -22 60 -23 154 -1 195 13 25 22 27 39 10 8 -8 15 -8 28
3 45 37 72 168 39 187 -14 7 -12 16 10 65 43 98 29 144 -21 66z"/>
<path d="M1427 5733 c-2 -5 2 -19 9 -33 l14 -25 0 33 c0 29 -13 43 -23 25z"/>
<path d="M1379 5499 c19 -15 26 -17 32 -7 15 22 10 28 -23 28 l-33 -1 24 -20z"/>
<path d="M1403 5343 c-18 -6 -16 -38 2 -53 12 -10 15 -7 21 15 7 28 -3 45 -23
38z"/>
<path d="M4838 5283 c-14 -2 -32 -11 -38 -18 -17 -21 14 -31 47 -16 21 10 33
8 79 -14 57 -27 121 -37 125 -20 4 15 -101 64 -147 69 -21 2 -51 2 -66 -1z"/>
<path d="M1415 5249 c-10 -15 3 -25 16 -12 7 7 7 13 1 17 -6 3 -14 1 -17 -5z"/>
<path d="M5176 5139 c-14 -11 -24 -24 -22 -28 5 -7 138 4 164 14 11 4 12 8 2
20 -20 24 -111 20 -144 -6z"/>
<path d="M5035 5121 c-7 -12 12 -24 25 -16 11 7 4 25 -10 25 -5 0 -11 -4 -15
-9z"/>
<path d="M5390 5110 c0 -5 5 -10 11 -10 5 0 7 5 4 10 -3 6 -8 10 -11 10 -2 0
-4 -4 -4 -10z"/>
<path d="M2891 4996 c-16 -19 2 -102 29 -131 12 -13 20 -30 17 -38 -10 -26 13
-37 39 -20 31 20 30 28 -10 78 -19 23 -38 58 -41 78 -8 43 -18 52 -34 33z"/>
<path d="M2893 4803 c-18 -7 -16 -33 2 -33 8 0 15 9 15 20 0 11 -1 20 -2 19
-2 0 -9 -3 -15 -6z"/>
<path d="M2982 4768 c-25 -25 -8 -78 25 -78 9 0 13 15 13 45 0 46 -13 58 -38
33z"/>
<path d="M2766 4702 c-8 -13 11 -158 24 -182 6 -11 24 -27 40 -35 17 -9 30
-20 30 -26 0 -7 12 -9 35 -5 32 6 35 5 35 -16 0 -29 26 -68 46 -68 8 0 14 3
14 8 1 4 2 36 3 72 1 36 6 71 10 78 12 19 -1 32 -32 32 -36 0 -53 21 -60 73
-5 33 -10 42 -25 42 -14 0 -22 -13 -33 -55 -21 -84 -22 -87 -33 -70 -6 8 -10
29 -10 46 0 54 -31 127 -44 106z"/>
<path d="M3780 4682 c0 -4 22 -29 49 -56 49 -48 74 -54 64 -16 -10 38 -113
103 -113 72z"/>
<path d="M3050 4515 c0 -19 4 -35 9 -35 12 0 19 29 13 53 -7 30 -22 18 -22
-18z"/>
<path d="M3112 4488 c-7 -7 -12 -17 -12 -24 0 -6 -11 -19 -25 -28 -31 -20 -32
-32 -2 -40 16 -4 27 1 43 19 20 25 21 25 37 7 9 -10 17 -23 17 -29 0 -5 18
-18 41 -28 48 -22 83 -67 74 -95 -5 -15 3 -25 34 -45 47 -29 60 -31 87 -10 30
23 46 18 99 -30 27 -25 53 -44 59 -42 20 7 15 24 -19 64 -43 50 -44 63 -5 63
54 0 110 41 110 79 0 19 -26 12 -48 -14 -24 -28 -74 -45 -80 -27 -2 7 -12 12
-22 12 -10 0 -25 6 -32 14 -8 7 -49 32 -92 56 -70 39 -82 42 -127 37 -27 -3
-49 -2 -49 3 0 14 -51 70 -64 70 -7 0 -17 -5 -24 -12z"/>
<path d="M4724 4439 c-7 -12 15 -31 28 -23 9 6 -1 34 -12 34 -5 0 -12 -5 -16
-11z"/>
<path d="M8035 4408 c-16 -5 -52 -17 -80 -26 -96 -31 -173 -99 -222 -199 -43
-86 -54 -188 -33 -281 23 -96 95 -215 162 -266 43 -32 127 -63 195 -72 57 -7
199 12 209 27 3 5 13 9 23 9 27 0 125 70 160 114 17 21 43 64 58 95 26 52 28
65 28 176 0 117 -1 122 -36 196 -57 119 -145 195 -264 228 -48 13 -158 13
-200 -1z"/>
<path d="M2830 4391 c-8 -16 -4 -24 23 -48 19 -15 47 -39 63 -53 38 -33 56
-40 72 -28 21 18 13 37 -22 52 -19 8 -53 33 -75 55 -23 23 -43 41 -46 41 -2 0
-9 -9 -15 -19z"/>
<path d="M3200 4314 c0 -8 5 -12 10 -9 6 4 8 11 5 16 -9 14 -15 11 -15 -7z"/>
<path d="M3690 4294 c0 -14 43 -64 55 -64 28 0 28 24 -1 47 -27 22 -54 30 -54
17z"/>
<path d="M3022 4258 c2 -13 10 -23 18 -23 8 0 16 10 18 23 3 17 -2 22 -18 22
-16 0 -21 -5 -18 -22z"/>
<path d="M3780 4206 c0 -19 28 -28 51 -15 26 14 15 29 -22 29 -18 0 -29 -5
-29 -14z"/>
<path d="M3141 4150 c-8 -24 -16 -30 -39 -30 -32 0 -62 -26 -62 -54 0 -10 -12
-33 -26 -52 -15 -19 -26 -44 -26 -57 0 -33 95 -228 132 -270 31 -36 34 -37 90
-35 l59 3 97 -95 c54 -52 127 -128 162 -167 60 -68 82 -81 82 -49 0 8 -6 19
-14 26 -17 13 -10 40 10 40 27 0 83 138 84 207 0 25 -6 48 -16 57 -9 9 -20 33
-26 53 -12 43 -44 96 -103 168 -24 29 -59 88 -80 132 -51 108 -51 108 -66 108
-9 0 -16 -15 -19 -40 -4 -36 -8 -40 -30 -37 -14 1 -42 20 -62 42 -34 36 -104
80 -127 80 -5 0 -14 -13 -20 -30z"/>
<path d="M3863 4173 c-18 -7 -16 -28 3 -43 12 -11 18 -10 31 3 13 13 14 19 3
31 -13 17 -17 18 -37 9z"/>
<path d="M4052 3956 c2 -15 8 -26 13 -26 15 0 12 43 -3 48 -10 3 -13 -4 -10
-22z"/>
<path d="M4362 3863 c2 -10 10 -18 18 -18 8 0 16 8 18 18 2 12 -3 17 -18 17
-15 0 -20 -5 -18 -17z"/>
<path d="M3974 3805 c-3 -8 -3 -19 1 -25 11 -17 35 -11 35 9 0 23 -29 36 -36
16z"/>
<path d="M7595 3607 c-52 -86 -159 -202 -237 -255 -64 -44 -210 -116 -286
-141 -49 -17 -465 -127 -558 -148 -34 -8 -91 -60 -98 -89 -9 -36 9 -76 46
-104 29 -21 42 -23 162 -24 134 0 184 7 386 51 232 50 419 108 514 158 72 37
152 100 220 173 55 59 156 212 156 237 0 22 -58 85 -78 85 -7 0 -12 3 -12 8 0
9 -146 132 -157 132 -4 0 -30 -37 -58 -83z"/>
<path d="M3996 3536 c-3 -14 -3 -32 0 -40 8 -21 -40 -68 -86 -86 -48 -19 -91
-50 -85 -61 11 -16 61 -10 102 14 108 59 153 88 153 98 0 15 -59 99 -69 99 -5
0 -12 -11 -15 -24z"/>
<path d="M2543 3522 c-49 -31 -113 -417 -113 -681 0 -203 38 -434 91 -551 55
-120 85 -167 154 -236 61 -61 93 -84 120 -84 11 0 48 27 83 60 34 33 85 71
112 85 28 14 50 31 50 38 0 6 -39 53 -86 102 -77 82 -135 157 -173 225 -7 14
-25 63 -39 110 -25 83 -25 92 -29 470 -4 356 -6 387 -24 416 -10 17 -30 36
-44 42 -29 13 -84 16 -102 4z"/>
<path d="M5427 3023 c-10 -9 -8 -41 2 -47 18 -11 41 6 41 30 0 17 -6 24 -18
24 -10 0 -22 -3 -25 -7z"/>
<path d="M7523 2913 c9 -2 23 -2 30 0 6 3 -1 5 -18 5 -16 0 -22 -2 -12 -5z"/>
<path d="M5800 2871 c-71 -28 -341 -91 -394 -91 -26 0 -79 5 -117 12 -62 10
-72 9 -87 -6 -16 -16 -15 -18 8 -36 29 -22 22 -26 -50 -33 -27 -2 -57 2 -74
11 -20 10 -44 12 -81 7 -32 -4 -75 -1 -111 7 -85 20 -408 18 -429 -2 -47 -48
74 -70 422 -76 332 -6 500 12 692 75 116 38 285 106 309 124 39 30 -19 36 -88
8z"/>
<path d="M3160 2051 c-102 -17 -214 -80 -267 -148 -79 -105 -100 -221 -64
-358 53 -202 203 -316 416 -317 124 0 222 37 305 117 52 50 57 58 86 127 22
54 26 79 27 169 1 59 -3 117 -9 130 -58 131 -78 158 -154 214 -75 55 -229 85
-340 66z"/>
<path d="M6435 2010 c3 -5 8 -10 11 -10 2 0 4 5 4 10 0 6 -5 10 -11 10 -5 0
-7 -4 -4 -10z"/>
<path d="M3767 1633 c-2 -5 -10 -37 -17 -73 -8 -36 -24 -88 -36 -116 -29 -66
-39 -120 -25 -128 6 -4 32 -11 59 -16 26 -5 79 -16 117 -25 76 -19 92 -22 300
-55 192 -32 553 -35 690 -6 105 22 177 55 202 93 25 38 23 98 -5 125 -23 23
-23 23 -380 24 -299 0 -367 3 -415 17 -85 24 -126 37 -177 58 -266 107 -303
119 -313 102z"/>
</g>
</svg>
